# xmcd
# 
# Track frame offsets:
#     150
#     6400
#     174846
#     281855
# 
# Disc length: 4461
# 
# Revision: 4
# Processed by: cddbd v1.5.2PL0 Copyright (c) Steve Scherf et al.
# Submitted via: BonkEnc v1.0
# 
DISCID=2f116b04
DTITLE=DJ Deep - Deep Dance 64
DYEAR=2000
DGENRE=Dance
TTITLE0=DJ Deep - Intro Deep Dance 64
TTITLE1=DJ Deep - Deep Dance 64
TTITLE2=DJ Deep - Deep Hard 11
TTITLE3=DJ Deep - Deep Latino No.1
EXTD=YEAR: 2000 ID3G: 3
EXTT0=
EXTT1=
EXTT2=
EXTT3=
PLAYORDER=
